<mxfile host="app.diagrams.net" modified="2024-04-13T09:23:55.176Z" agent="Mozilla/5.0 (Macintosh; Intel Mac OS X 10_15_7) AppleWebKit/537.36 (KHTML, like Gecko) Chrome/123.0.0.0 Safari/537.36" version="24.2.5" etag="7-VPp5d2nNo3j6W9TxZo" type="github">
  <diagram name="Страница — 1" id="Pe_EcIFyPfyRU41acnV-">
    <mxGraphModel>
      <root>
        <mxCell id="0" />
        <mxCell id="1" parent="0" />
      </root>
    </mxGraphModel>
  </diagram>
</mxfile>
